<svg xmlns="http://www.w3.org/2000/svg">
	<symbol id="eye">
		<svg xmlns="http://www.w3.org/2000/svg" viewBox="0 0 16 16" fill="currentColor">
			<path
				d="M16 8s-3-5.5-8-5.5S0 8 0 8s3 5.5 8 5.5S16 8 16 8zM1.173 8a13.133 13.133 0 0 1 1.66-2.043C4.12 4.668 5.88 3.5 8 3.5c2.12 0 3.879 1.168 5.168 2.457A13.133 13.133 0 0 1 14.828 8c-.058.087-.122.183-.195.288-.335.48-.83 1.12-1.465 1.755C11.879 11.332 10.119 12.5 8 12.5c-2.12 0-3.879-1.168-5.168-2.457A13.134 13.134 0 0 1 1.172 8z" />
			<path d="M8 5.5a2.5 2.5 0 1 0 0 5 2.5 2.5 0 0 0 0-5zM4.5 8a3.5 3.5 0 1 1 7 0 3.5 3.5 0 0 1-7 0z" />
		</svg>
	</symbol>
	<symbol id="eye_slashed">
		<svg xmlns="http://www.w3.org/2000/svg" viewBox="0 0 16 16" fill="currentColor">
			<path
				d="M13.359 11.238C15.06 9.72 16 8 16 8s-3-5.5-8-5.5a7.028 7.028 0 0 0-2.79.588l.77.771A5.944 5.944 0 0 1 8 3.5c2.12 0 3.879 1.168 5.168 2.457A13.134 13.134 0 0 1 14.828 8c-.058.087-.122.183-.195.288-.335.48-.83 1.12-1.465 1.755-.165.165-.337.328-.517.486l.708.709z" />
			<path
				d="M11.297 9.176a3.5 3.5 0 0 0-4.474-4.474l.823.823a2.5 2.5 0 0 1 2.829 2.829l.822.822zm-2.943 1.299.822.822a3.5 3.5 0 0 1-4.474-4.474l.823.823a2.5 2.5 0 0 0 2.829 2.829z" />
			<path
				d="M3.35 5.47c-.18.16-.353.322-.518.487A13.134 13.134 0 0 0 1.172 8l.195.288c.335.48.83 1.12 1.465 1.755C4.121 11.332 5.881 12.5 8 12.5c.716 0 1.39-.133 2.02-.36l.77.772A7.029 7.029 0 0 1 8 13.5C3 13.5 0 8 0 8s.939-1.721 2.641-3.238l.708.709zm10.296 8.884-12-12 .708-.708 12 12-.708.708z" />
		</svg>
	</symbol>
	<symbol id="copy">
		<svg xmlns="http://www.w3.org/2000/svg" viewBox="100 30 500 500" fill="currentColor">
			<path
				d="m271.6 33.602v22.406h50v-22.406zM271.6 33.602c-18.422 0-33.602 15.18-33.602 33.598v56h-33.602c-18.418 0-33.598 15.18-33.598 33.602v336c0 18.418 15.18 33.598 33.598 33.598h224c18.422 0 33.602-15.18 33.602-33.598v-56h33.602c18.418 0 33.598-15.18 33.598-33.602v-257.6c-0.023438-2.9648-1.2188-5.793-3.3242-7.875l-100.8-100.8c-2.082-2.1055-4.9141-3.3008-7.875-3.3242h-100.8c-2.9961-0.042968-5.8867 1.1172-8.0195 3.2227-2.1367 2.1055-3.3398 4.9766-3.3398 7.9766 0 2.9961 1.2031 5.8711 3.3398 7.9766 2.1328 2.1055 5.0234 3.2656 8.0195 3.2227h89.602v89.602c0 6.1836 5.0156 11.199 11.199 11.199h89.602v246.4c0 6.3984-4.8008 11.199-11.199 11.199h-224c-6.3984 0-11.203-4.8008-11.203-11.199v-336c0-6.3984 4.8047-11.199 11.203-11.199 2.9961 0.042969 5.8867-1.1172 8.0195-3.2227 2.1367-2.1055 3.3398-4.9805 3.3398-7.9766 0-3-1.2031-5.8711-3.3398-7.9766-2.1328-2.1055-5.0234-3.2656-8.0195-3.2227zm156.8 38.148 62.652 62.648h-62.652zm-224 73.852h33.602v257.6c0 18.422 15.18 33.602 33.602 33.602h168v56c0 6.3984-4.8047 11.199-11.203 11.199h-224c-6.3984 0-11.199-4.8008-11.199-11.199v-336c0-6.3984 4.8008-11.199 11.199-11.199z" />
		</svg>
	</symbol>
	<symbol id="github">
		<svg xmlns="http://www.w3.org/2000/svg" viewBox="0 0 24 24" fill="currentColor">
			<path
				d="M12 0c-6.626 0-12 5.373-12 12 0 5.302 3.438 9.8 8.207 11.387.599.111.793-.261.793-.577v-2.234c-3.338.726-4.033-1.416-4.033-1.416-.546-1.387-1.333-1.756-1.333-1.756-1.089-.745.083-.729.083-.729 1.205.084 1.839 1.237 1.839 1.237 1.07 1.834 2.807 1.304 3.492.997.107-.775.418-1.305.762-1.604-2.665-.305-5.467-1.334-5.467-5.931 0-1.311.469-2.381 1.236-3.221-.124-.303-.535-1.524.117-3.176 0 0 1.008-.322 3.301 1.23.957-.266 1.983-.399 3.003-.404 1.02.005 2.047.138 3.006.404 2.291-1.552 3.297-1.23 3.297-1.23.653 1.653.242 2.874.118 3.176.77.84 1.235 1.911 1.235 3.221 0 4.609-2.807 5.624-5.479 5.921.43.372.823 1.102.823 2.222v3.293c0 .319.192.694.801.576 4.765-1.589 8.199-6.086 8.199-11.386 0-6.627-5.373-12-12-12z" />
		</svg>
	</symbol>
</svg>